<?xml version="1.0" encoding="UTF-8"?>
<svg xmlns="http://www.w3.org/2000/svg" viewBox="0 0 512 512">
  <defs>
    <linearGradient id="grad512" x1="0%" y1="0%" x2="100%" y2="100%">
      <stop offset="0%" style="stop-color:#667eea;stop-opacity:1" />
      <stop offset="50%" style="stop-color:#764ba2;stop-opacity:1" />
      <stop offset="100%" style="stop-color:#f093fb;stop-opacity:1" />
    </linearGradient>
    <radialGradient id="bgAccent" cx="50%" cy="50%" r="50%">
      <stop offset="0%" style="stop-color:rgba(255,255,255,0.1);stop-opacity:1" />
      <stop offset="100%" style="stop-color:rgba(255,255,255,0);stop-opacity:0" />
    </radialGradient>
  </defs>
  
  <!-- Main background -->
  <rect width="512" height="512" fill="url(#grad512)" rx="80"/>
  <rect width="512" height="512" fill="url(#bgAccent)" rx="80"/>
  
  <!-- Musical note from reference SVG (scaled to be clearly visible) -->
  <g transform="translate(80,440) scale(0.065,-0.065)" fill="white" opacity="0.95">
    <path d="M2490 3121 l0 -1290 -73 34 c-130 60 -223 79 -387 79 -173 1 -264 -19 -405 -89 -115 -56 -202 -128 -265 -217 -67 -96 -91 -163 -97 -273 -9 -155 38 -282 148 -400 136 -144 309 -224 536 -246 215 -20 427 33 597 150 63 44 157 149 193 217 66 124 63 62 63 1311 0 623 2 1133 4 1133 2 0 29 -16 61 -35 32 -19 90 -46 129 -61 346 -128 533 -312 622 -611 52 -174 42 -410 -21 -520 -35 -63 -13 -52 51 25 81 98 140 203 177 317 30 93 32 110 32 240 0 152 -10 205 -66 343 -56 142 -142 268 -270 399 -100 102 -179 166 -339 277 -143 98 -258 207 -313 298 -38 64 -67 143 -67 185 l0 23 -155 0 -155 0 0 -1289z"/>
  </g>
</svg>
