<?xml version="1.0" standalone="no"?>
<!DOCTYPE svg PUBLIC "-//W3C//DTD SVG 20010904//EN" "http://www.w3.org/TR/2001/REC-SVG-20010904/DTD/svg10.dtd">
<svg xmlns="http://www.w3.org/2000/svg" version="1.0" width="512.000000pt" height="512.000000pt" viewBox="0 0 512.000000 512.000000" preserveAspectRatio="xMidYMid meet">
<metadata>
Created by potrace 1.16, written by Peter Selinger 2001-2019
<meta name="Producer" content="Online-Convert"/></metadata>
<g transform="translate(0.000000,512.000000) scale(0.100000,-0.100000)" fill="#000000" stroke="none">
<path d="M2490 3121 l0 -1290 -73 34 c-130 60 -223 79 -387 79 -173 1 -264 -19 -405 -89 -115 -56 -202 -128 -265 -217 -67 -96 -91 -163 -97 -273 -9 -155 38 -282 148 -400 136 -144 309 -224 536 -246 215 -20 427 33 597 150 63 44 157 149 193 217 66 124 63 62 63 1311 0 623 2 1133 4 1133 2 0 29 -16 61 -35 32 -19 90 -46 129 -61 346 -128 533 -312 622 -611 52 -174 42 -410 -21 -520 -35 -63 -13 -52 51 25 81 98 140 203 177 317 30 93 32 110 32 240 0 152 -10 205 -66 343 -56 142 -142 268 -270 399 -100 102 -179 166 -339 277 -143 98 -258 207 -313 298 -38 64 -67 143 -67 185 l0 23 -155 0 -155 0 0 -1289z"/>
</g>
</svg>
